<mxfile host="app.diagrams.net" modified="2023-12-21T16:24:42.769Z" agent="Mozilla/5.0 (Windows NT 10.0; Win64; x64) AppleWebKit/537.36 (KHTML, like Gecko) Chrome/120.0.0.0 Safari/537.36 Edg/120.0.0.0" etag="-ZOt6nMmrGtc-xl9u2_G" version="22.1.11" type="github">
  <diagram name="PÃ¡gina-1" id="WICck9pgIeBtj4AcxYeL">
    <mxGraphModel dx="2730" dy="1406" grid="1" gridSize="10" guides="1" tooltips="1" connect="1" arrows="1" fold="1" page="1" pageScale="1" pageWidth="827" pageHeight="1169" math="0" shadow="0">
      <root>
        <mxCell id="0" />
        <mxCell id="1" parent="0" />
        <mxCell id="PBhGnh1ifOubgosgx4_8-1" value=": Simulador" style="rounded=0;whiteSpace=wrap;html=1;" parent="1" vertex="1">
          <mxGeometry x="209" y="265" width="120" height="60" as="geometry" />
        </mxCell>
        <mxCell id="PBhGnh1ifOubgosgx4_8-2" value=": Flota" style="rounded=0;whiteSpace=wrap;html=1;" parent="1" vertex="1">
          <mxGeometry x="842" y="265" width="120" height="60" as="geometry" />
        </mxCell>
        <mxCell id="PBhGnh1ifOubgosgx4_8-4" value=": Nodo" style="rounded=0;whiteSpace=wrap;html=1;" parent="1" vertex="1">
          <mxGeometry x="842" y="495" width="120" height="60" as="geometry" />
        </mxCell>
        <mxCell id="PBhGnh1ifOubgosgx4_8-5" value=": Mapa" style="rounded=0;whiteSpace=wrap;html=1;" parent="1" vertex="1">
          <mxGeometry x="489" y="495" width="120" height="60" as="geometry" />
        </mxCell>
        <mxCell id="PBhGnh1ifOubgosgx4_8-17" value="" style="endArrow=none;html=1;rounded=0;exitX=1;exitY=0.5;exitDx=0;exitDy=0;entryX=0;entryY=0.5;entryDx=0;entryDy=0;" parent="1" source="PBhGnh1ifOubgosgx4_8-1" target="PBhGnh1ifOubgosgx4_8-2" edge="1">
          <mxGeometry width="50" height="50" relative="1" as="geometry">
            <mxPoint x="489" y="555" as="sourcePoint" />
            <mxPoint x="539" y="505" as="targetPoint" />
          </mxGeometry>
        </mxCell>
        <mxCell id="PBhGnh1ifOubgosgx4_8-21" value="" style="endArrow=classic;html=1;rounded=0;" parent="1" edge="1">
          <mxGeometry width="50" height="50" relative="1" as="geometry">
            <mxPoint x="302" y="545" as="sourcePoint" />
            <mxPoint x="462" y="545" as="targetPoint" />
          </mxGeometry>
        </mxCell>
        <mxCell id="PBhGnh1ifOubgosgx4_8-22" value="" style="endArrow=classic;html=1;rounded=0;" parent="1" edge="1">
          <mxGeometry width="50" height="50" relative="1" as="geometry">
            <mxPoint x="69" y="275" as="sourcePoint" />
            <mxPoint x="189" y="275" as="targetPoint" />
          </mxGeometry>
        </mxCell>
        <mxCell id="PBhGnh1ifOubgosgx4_8-23" value="1: resultado(flota)&lt;br&gt;2: recorrido(mapa,flota)&lt;br&gt;3: NewickSim(mapa)&lt;br&gt;&lt;div style=&quot;&quot;&gt;&lt;span style=&quot;background-color: initial;&quot;&gt;4: caminoCorto(mapa)&lt;/span&gt;&lt;/div&gt;" style="text;html=1;strokeColor=none;fillColor=none;align=left;verticalAlign=middle;whiteSpace=wrap;rounded=0;" parent="1" vertex="1">
          <mxGeometry x="69" y="185" width="140" height="70" as="geometry" />
        </mxCell>
        <mxCell id="PBhGnh1ifOubgosgx4_8-14" value="1.1 * [ i = 2 ] : getHP()&lt;br&gt;1.2: getPosicion()&lt;br&gt;2.2 : setPosicion(mapa.getInicial())&lt;br&gt;2.3 * [ i = 2 x n ] : getHP()&lt;br&gt;2.4 * [ i = 3 x n ] :&amp;nbsp;getPosicion()&lt;br&gt;2.7 * [ i = n ] : setPosicion(flota.getPosicion().next(flota)&lt;span style=&quot;background-color: initial;&quot;&gt;)&amp;nbsp;&lt;/span&gt;" style="text;html=1;strokeColor=none;fillColor=none;align=left;verticalAlign=middle;whiteSpace=wrap;rounded=0;" parent="1" vertex="1">
          <mxGeometry x="452" y="155" width="460" height="130" as="geometry" />
        </mxCell>
        <mxCell id="PBhGnh1ifOubgosgx4_8-25" value="" style="endArrow=classic;html=1;rounded=0;entryX=0.641;entryY=0.923;entryDx=0;entryDy=0;entryPerimeter=0;" parent="1" edge="1">
          <mxGeometry width="50" height="50" relative="1" as="geometry">
            <mxPoint x="452" y="275" as="sourcePoint" />
            <mxPoint x="751.8600000000001" y="274.99" as="targetPoint" />
          </mxGeometry>
        </mxCell>
        <mxCell id="PBhGnh1ifOubgosgx4_8-26" value="&lt;div style=&quot;text-align: left;&quot;&gt;&lt;span style=&quot;background-color: initial;&quot;&gt;2.1: mapaValido()&lt;/span&gt;&lt;/div&gt;&lt;div style=&quot;text-align: left;&quot;&gt;&lt;span style=&quot;background-color: initial;&quot;&gt;3.1: getInicial()&lt;/span&gt;&lt;/div&gt;&lt;div style=&quot;text-align: left;&quot;&gt;&lt;span style=&quot;background-color: initial;&quot;&gt;4.1: getInicial()&lt;/span&gt;&lt;/div&gt;&lt;div style=&quot;text-align: left;&quot;&gt;&lt;span style=&quot;background-color: initial;&quot;&gt;5: addHijos(padre, hijo)&lt;/span&gt;&lt;/div&gt;&lt;div style=&quot;text-align: left;&quot;&gt;&lt;span style=&quot;background-color: initial;&quot;&gt;6: addHijos(padre, hijoIz, hijoDer)&lt;/span&gt;&lt;/div&gt;" style="text;html=1;strokeColor=none;fillColor=none;align=center;verticalAlign=middle;whiteSpace=wrap;rounded=0;" parent="1" vertex="1">
          <mxGeometry x="286" y="550" width="220" height="75" as="geometry" />
        </mxCell>
        <mxCell id="PBhGnh1ifOubgosgx4_8-29" value="" style="endArrow=none;html=1;rounded=0;entryX=0.5;entryY=1;entryDx=0;entryDy=0;exitX=0;exitY=0.5;exitDx=0;exitDy=0;" parent="1" source="PBhGnh1ifOubgosgx4_8-5" target="PBhGnh1ifOubgosgx4_8-1" edge="1">
          <mxGeometry width="50" height="50" relative="1" as="geometry">
            <mxPoint x="322" y="545" as="sourcePoint" />
            <mxPoint x="372" y="495" as="targetPoint" />
            <Array as="points">
              <mxPoint x="269" y="525" />
            </Array>
          </mxGeometry>
        </mxCell>
        <mxCell id="PBhGnh1ifOubgosgx4_8-31" value="" style="endArrow=none;html=1;rounded=0;exitX=1;exitY=0.5;exitDx=0;exitDy=0;" parent="1" source="PBhGnh1ifOubgosgx4_8-5" target="PBhGnh1ifOubgosgx4_8-4" edge="1">
          <mxGeometry width="50" height="50" relative="1" as="geometry">
            <mxPoint x="662" y="545" as="sourcePoint" />
            <mxPoint x="712" y="495" as="targetPoint" />
          </mxGeometry>
        </mxCell>
        <mxCell id="PBhGnh1ifOubgosgx4_8-32" value="2.1.2: valido()&lt;br&gt;5.1: addHijoUnico()&lt;br&gt;6.1: addHijoBinario()" style="text;html=1;strokeColor=none;fillColor=none;align=left;verticalAlign=middle;whiteSpace=wrap;rounded=0;" parent="1" vertex="1">
          <mxGeometry x="672" y="555" width="130" height="50" as="geometry" />
        </mxCell>
        <mxCell id="PBhGnh1ifOubgosgx4_8-34" value="" style="endArrow=none;html=1;rounded=0;exitX=0.25;exitY=1;exitDx=0;exitDy=0;" parent="1" source="PBhGnh1ifOubgosgx4_8-5" edge="1">
          <mxGeometry width="50" height="50" relative="1" as="geometry">
            <mxPoint x="502" y="545" as="sourcePoint" />
            <mxPoint x="519" y="615" as="targetPoint" />
          </mxGeometry>
        </mxCell>
        <mxCell id="PBhGnh1ifOubgosgx4_8-35" value="" style="endArrow=none;html=1;rounded=0;" parent="1" edge="1">
          <mxGeometry width="50" height="50" relative="1" as="geometry">
            <mxPoint x="519" y="615" as="sourcePoint" />
            <mxPoint x="579" y="615" as="targetPoint" />
          </mxGeometry>
        </mxCell>
        <mxCell id="PBhGnh1ifOubgosgx4_8-36" value="" style="endArrow=none;html=1;rounded=0;entryX=0.75;entryY=1;entryDx=0;entryDy=0;" parent="1" target="PBhGnh1ifOubgosgx4_8-5" edge="1">
          <mxGeometry width="50" height="50" relative="1" as="geometry">
            <mxPoint x="579" y="615" as="sourcePoint" />
            <mxPoint x="552" y="495" as="targetPoint" />
          </mxGeometry>
        </mxCell>
        <mxCell id="PBhGnh1ifOubgosgx4_8-37" value="2.1.1: getInicial()" style="text;html=1;strokeColor=none;fillColor=none;align=center;verticalAlign=middle;whiteSpace=wrap;rounded=0;" parent="1" vertex="1">
          <mxGeometry x="484" y="635" width="130" height="30" as="geometry" />
        </mxCell>
        <mxCell id="PBhGnh1ifOubgosgx4_8-39" value="" style="endArrow=classic;html=1;rounded=0;" parent="1" edge="1">
          <mxGeometry width="50" height="50" relative="1" as="geometry">
            <mxPoint x="509" y="625" as="sourcePoint" />
            <mxPoint x="589" y="625" as="targetPoint" />
          </mxGeometry>
        </mxCell>
        <mxCell id="PBhGnh1ifOubgosgx4_8-43" value="" style="endArrow=classic;html=1;rounded=0;" parent="1" edge="1">
          <mxGeometry width="50" height="50" relative="1" as="geometry">
            <mxPoint x="662" y="545" as="sourcePoint" />
            <mxPoint x="792" y="545" as="targetPoint" />
          </mxGeometry>
        </mxCell>
        <mxCell id="PBhGnh1ifOubgosgx4_8-45" value="" style="endArrow=classic;html=1;rounded=0;" parent="1" edge="1">
          <mxGeometry width="50" height="50" relative="1" as="geometry">
            <mxPoint x="922" y="455" as="sourcePoint" />
            <mxPoint x="922" y="355" as="targetPoint" />
          </mxGeometry>
        </mxCell>
        <mxCell id="PBhGnh1ifOubgosgx4_8-46" value="" style="endArrow=none;html=1;rounded=0;entryX=0.5;entryY=1;entryDx=0;entryDy=0;exitX=0.5;exitY=0;exitDx=0;exitDy=0;" parent="1" source="PBhGnh1ifOubgosgx4_8-4" target="PBhGnh1ifOubgosgx4_8-2" edge="1">
          <mxGeometry width="50" height="50" relative="1" as="geometry">
            <mxPoint x="562" y="465" as="sourcePoint" />
            <mxPoint x="612" y="415" as="targetPoint" />
          </mxGeometry>
        </mxCell>
        <mxCell id="PBhGnh1ifOubgosgx4_8-47" value="" style="endArrow=none;html=1;rounded=0;entryX=0.25;entryY=1;entryDx=0;entryDy=0;" parent="1" target="PBhGnh1ifOubgosgx4_8-4" edge="1">
          <mxGeometry width="50" height="50" relative="1" as="geometry">
            <mxPoint x="872" y="615" as="sourcePoint" />
            <mxPoint x="919" y="605" as="targetPoint" />
          </mxGeometry>
        </mxCell>
        <mxCell id="PBhGnh1ifOubgosgx4_8-48" value="" style="endArrow=none;html=1;rounded=0;" parent="1" edge="1">
          <mxGeometry width="50" height="50" relative="1" as="geometry">
            <mxPoint x="872" y="615" as="sourcePoint" />
            <mxPoint x="932" y="615" as="targetPoint" />
          </mxGeometry>
        </mxCell>
        <mxCell id="PBhGnh1ifOubgosgx4_8-49" value="" style="endArrow=none;html=1;rounded=0;entryX=0.75;entryY=1;entryDx=0;entryDy=0;" parent="1" target="PBhGnh1ifOubgosgx4_8-4" edge="1">
          <mxGeometry width="50" height="50" relative="1" as="geometry">
            <mxPoint x="932" y="615" as="sourcePoint" />
            <mxPoint x="622" y="395" as="targetPoint" />
          </mxGeometry>
        </mxCell>
        <mxCell id="PBhGnh1ifOubgosgx4_8-50" value="" style="endArrow=classic;html=1;rounded=0;" parent="1" edge="1">
          <mxGeometry width="50" height="50" relative="1" as="geometry">
            <mxPoint x="862" y="625" as="sourcePoint" />
            <mxPoint x="942" y="625" as="targetPoint" />
          </mxGeometry>
        </mxCell>
        <mxCell id="qtkPWYaVm_F9rMl8UNy9-1" value="2.6.1 [TormentaMarina [vision&amp;lt;tormente true] || AtaqueAereo || Batalla *[i=2] ] : restarHP()&lt;br&gt;2.6.2 [TormentaMarina] : getVision()&lt;br&gt;2.5.1 [Avistamiento] : getVision()&lt;br&gt;2.6.3 [AtaqueAereo] : getAntiaereos()&lt;br&gt;2.6.4 [AtaqueAereo || Batalla *[i=2] ] : getBlindaje()&lt;br&gt;2.6.5 [Batalla *[i=2] ] : getPoder()" style="text;html=1;strokeColor=none;fillColor=none;align=left;verticalAlign=middle;whiteSpace=wrap;rounded=0;" parent="1" vertex="1">
          <mxGeometry x="931" y="355" width="650" height="100" as="geometry" />
        </mxCell>
        <mxCell id="qtkPWYaVm_F9rMl8UNy9-3" value="" style="endArrow=none;html=1;rounded=0;entryX=0;entryY=0;entryDx=0;entryDy=0;exitX=1;exitY=1;exitDx=0;exitDy=0;" parent="1" source="PBhGnh1ifOubgosgx4_8-1" target="PBhGnh1ifOubgosgx4_8-4" edge="1">
          <mxGeometry width="50" height="50" relative="1" as="geometry">
            <mxPoint x="682" y="445" as="sourcePoint" />
            <mxPoint x="732" y="395" as="targetPoint" />
          </mxGeometry>
        </mxCell>
        <mxCell id="qtkPWYaVm_F9rMl8UNy9-4" value="" style="endArrow=classic;html=1;rounded=0;" parent="1" edge="1">
          <mxGeometry width="50" height="50" relative="1" as="geometry">
            <mxPoint x="492" y="365" as="sourcePoint" />
            <mxPoint x="702" y="435" as="targetPoint" />
          </mxGeometry>
        </mxCell>
        <mxCell id="qtkPWYaVm_F9rMl8UNy9-5" value="1.3 : getName()&lt;br&gt;2.5 * [&amp;nbsp;i = 2 x n ]&amp;nbsp;: next(flota)&lt;br&gt;2.6 * [ i = n] : action(flota)&lt;br&gt;3.2 : Newick()&lt;br&gt;4.2 : caminoCorto(0)" style="text;html=1;strokeColor=none;fillColor=none;align=left;verticalAlign=middle;whiteSpace=wrap;rounded=0;rotation=0;" parent="1" vertex="1">
          <mxGeometry x="591" y="325" width="150" height="70" as="geometry" />
        </mxCell>
        <mxCell id="_7e9RXA1wCkBmxa7xCcD-1" value="" style="endArrow=none;html=1;rounded=0;entryX=0;entryY=0.5;entryDx=0;entryDy=0;" edge="1" parent="1" target="PBhGnh1ifOubgosgx4_8-1">
          <mxGeometry width="50" height="50" relative="1" as="geometry">
            <mxPoint x="48.800048828125" y="295" as="sourcePoint" />
            <mxPoint x="672" y="395" as="targetPoint" />
          </mxGeometry>
        </mxCell>
        <mxCell id="_7e9RXA1wCkBmxa7xCcD-2" value="3.2.1 : getName()&lt;br&gt;3.2.2 : getBigName()&lt;br&gt;3.3.3 [Bifurcacion *[i=2] || RutaFija] : hijo.Newick()&lt;br&gt;4.2.1 [Bifurcacion *[i=2] || RutaFija] : hijo.caminoCorto(tamCamino)&lt;br&gt;2.1.2.1 [Bifurcacion *[i=2] || RutaFija] : hijo.valido()&amp;nbsp;" style="text;html=1;strokeColor=none;fillColor=none;align=left;verticalAlign=middle;whiteSpace=wrap;rounded=0;" vertex="1" parent="1">
          <mxGeometry x="852" y="635" width="410" height="80" as="geometry" />
        </mxCell>
        <mxCell id="_7e9RXA1wCkBmxa7xCcD-4" value="&lt;div style=&quot;&quot;&gt;&lt;span style=&quot;background-color: initial;&quot;&gt;La funciÃ³n recorrido tiene un bucle para recorrer todos los nodos del camino que se vaya siguiendo por lo que las llamadas de dentro se harÃ­an n veces siendo n = numero de nodos del camino que se esta recorriendo, tambien dependera el nÃºmero de ejecuciones del valor HP de la flota&amp;nbsp;&lt;/span&gt;&lt;/div&gt;" style="shape=note;whiteSpace=wrap;html=1;backgroundOutline=1;darkOpacity=0.05;align=center;" vertex="1" parent="1">
          <mxGeometry x="682" y="55" width="290" height="150" as="geometry" />
        </mxCell>
      </root>
    </mxGraphModel>
  </diagram>
</mxfile>
